<mxfile host="Electron" modified="2023-05-27T16:53:13.623Z" agent="Mozilla/5.0 (Macintosh; Intel Mac OS X 10_15_7) AppleWebKit/537.36 (KHTML, like Gecko) draw.io/21.2.1 Chrome/112.0.5615.87 Electron/24.1.2 Safari/537.36" etag="0CNOTpR2Z5DqJdZyTolr" version="21.2.1" type="device">
  <diagram name="Page-1" id="H1nZVYqxkzLZFgEqRADx">
    <mxGraphModel dx="2110" dy="4667" grid="1" gridSize="10" guides="1" tooltips="1" connect="1" arrows="1" fold="1" page="1" pageScale="1" pageWidth="850" pageHeight="1100" math="0" shadow="0">
      <root>
        <mxCell id="0" />
        <mxCell id="1" parent="0" />
        <mxCell id="AsBp8XiL8Dx4Y6rQVwFH-8560" value="R, W: 142, H: 133, ORDER: 18, GC: {56, 30, 25, 31, 5, 14, 6, 26, 9, 37, 10, 13, 7, 3, 16, 77, 12, 65} " style="text;html=1;strokeColor=none;fillColor=none;align=center;verticalAlign=middle;whiteSpace=wrap;rounded=0;fontSize=32;" parent="1" vertex="1">
          <mxGeometry x="1520" width="1420" height="30" as="geometry" />
        </mxCell>
        <mxCell id="AsBp8XiL8Dx4Y6rQVwFH-12009" value="R, W: 142, H: 125, ORDER: 19, GC: {53, 34, 28, 11, 16, 7, 4, 3, 1, 17, 10, 6, 27, 5, 22, 19, 21, 72, 70} " style="text;html=1;strokeColor=none;fillColor=none;align=center;verticalAlign=middle;whiteSpace=wrap;rounded=0;fontSize=32;" parent="1" vertex="1">
          <mxGeometry x="1525" y="1440" width="1420" height="30" as="geometry" />
        </mxCell>
        <mxCell id="AsBp8XiL8Dx4Y6rQVwFH-45081" value="R, W: 142, H: 117, ORDER: 23, GC: {31, 27, 33, 4, 23, 35, 21, 30, 12, 9, 39, 17, 28, 16, 24, 13, 7, 8, 6, 1, 48, 51, 43} " style="text;html=1;strokeColor=none;fillColor=none;align=center;verticalAlign=middle;whiteSpace=wrap;rounded=0;fontSize=32;" parent="1" vertex="1">
          <mxGeometry x="1520" y="2780" width="1420" height="30" as="geometry" />
        </mxCell>
        <mxCell id="AsBp8XiL8Dx4Y6rQVwFH-45177" value="R, W: 142, H: 122, ORDER: 23, GC: {43, 31, 26, 42, 10, 16, 12, 14, 5, 9, 6, 33, 20, 2, 28, 25, 13, 7, 36, 52, 8, 44, 46} " style="text;html=1;strokeColor=none;fillColor=none;align=center;verticalAlign=middle;whiteSpace=wrap;rounded=0;fontSize=32;" parent="1" vertex="1">
          <mxGeometry x="1530" y="4050" width="1420" height="30" as="geometry" />
        </mxCell>
        <mxCell id="0lz1U4sb5ddqj5HPqUz7-1" value="" style="group;flipV=1;" vertex="1" connectable="0" parent="1">
          <mxGeometry x="1520" y="50" width="1420" height="1330" as="geometry" />
        </mxCell>
        <mxCell id="761dnnyQ54j-Cl0NHfQN-8561" value="56" style="rounded=0;whiteSpace=wrap;html=1;fontSize=32;" parent="0lz1U4sb5ddqj5HPqUz7-1" vertex="1">
          <mxGeometry y="770" width="560" height="560" as="geometry" />
        </mxCell>
        <mxCell id="761dnnyQ54j-Cl0NHfQN-8562" value="30" style="rounded=0;whiteSpace=wrap;html=1;fontSize=32;" parent="0lz1U4sb5ddqj5HPqUz7-1" vertex="1">
          <mxGeometry x="560" y="1030" width="300" height="300" as="geometry" />
        </mxCell>
        <mxCell id="761dnnyQ54j-Cl0NHfQN-8563" value="25" style="rounded=0;whiteSpace=wrap;html=1;fontSize=32;" parent="0lz1U4sb5ddqj5HPqUz7-1" vertex="1">
          <mxGeometry x="860" y="1080" width="250" height="250" as="geometry" />
        </mxCell>
        <mxCell id="761dnnyQ54j-Cl0NHfQN-8564" value="31" style="rounded=0;whiteSpace=wrap;html=1;fontSize=32;" parent="0lz1U4sb5ddqj5HPqUz7-1" vertex="1">
          <mxGeometry x="1110" y="1020" width="310" height="310" as="geometry" />
        </mxCell>
        <mxCell id="761dnnyQ54j-Cl0NHfQN-8565" value="5" style="rounded=0;whiteSpace=wrap;html=1;fontSize=32;" parent="0lz1U4sb5ddqj5HPqUz7-1" vertex="1">
          <mxGeometry x="860" y="1030" width="50" height="50" as="geometry" />
        </mxCell>
        <mxCell id="761dnnyQ54j-Cl0NHfQN-8566" value="14" style="rounded=0;whiteSpace=wrap;html=1;fontSize=32;" parent="0lz1U4sb5ddqj5HPqUz7-1" vertex="1">
          <mxGeometry x="910" y="940" width="140" height="140" as="geometry" />
        </mxCell>
        <mxCell id="761dnnyQ54j-Cl0NHfQN-8567" value="6" style="rounded=0;whiteSpace=wrap;html=1;fontSize=32;" parent="0lz1U4sb5ddqj5HPqUz7-1" vertex="1">
          <mxGeometry x="1050" y="1020" width="60" height="60" as="geometry" />
        </mxCell>
        <mxCell id="761dnnyQ54j-Cl0NHfQN-8568" value="26" style="rounded=0;whiteSpace=wrap;html=1;fontSize=32;" parent="0lz1U4sb5ddqj5HPqUz7-1" vertex="1">
          <mxGeometry x="560" y="770" width="260" height="260" as="geometry" />
        </mxCell>
        <mxCell id="761dnnyQ54j-Cl0NHfQN-8569" value="9" style="rounded=0;whiteSpace=wrap;html=1;fontSize=32;" parent="0lz1U4sb5ddqj5HPqUz7-1" vertex="1">
          <mxGeometry x="820" y="940" width="90" height="90" as="geometry" />
        </mxCell>
        <mxCell id="761dnnyQ54j-Cl0NHfQN-8570" value="37" style="rounded=0;whiteSpace=wrap;html=1;fontSize=32;" parent="0lz1U4sb5ddqj5HPqUz7-1" vertex="1">
          <mxGeometry x="1050" y="650" width="370" height="370" as="geometry" />
        </mxCell>
        <mxCell id="761dnnyQ54j-Cl0NHfQN-8571" value="10" style="rounded=0;whiteSpace=wrap;html=1;fontSize=32;" parent="0lz1U4sb5ddqj5HPqUz7-1" vertex="1">
          <mxGeometry x="820" y="840" width="100" height="100" as="geometry" />
        </mxCell>
        <mxCell id="761dnnyQ54j-Cl0NHfQN-8572" value="13" style="rounded=0;whiteSpace=wrap;html=1;fontSize=32;" parent="0lz1U4sb5ddqj5HPqUz7-1" vertex="1">
          <mxGeometry x="920" y="810" width="130" height="130" as="geometry" />
        </mxCell>
        <mxCell id="761dnnyQ54j-Cl0NHfQN-8573" value="7" style="rounded=0;whiteSpace=wrap;html=1;fontSize=32;" parent="0lz1U4sb5ddqj5HPqUz7-1" vertex="1">
          <mxGeometry x="820" y="770" width="70" height="70" as="geometry" />
        </mxCell>
        <mxCell id="761dnnyQ54j-Cl0NHfQN-8574" value="3" style="rounded=0;whiteSpace=wrap;html=1;fontSize=32;" parent="0lz1U4sb5ddqj5HPqUz7-1" vertex="1">
          <mxGeometry x="890" y="810" width="30" height="30" as="geometry" />
        </mxCell>
        <mxCell id="761dnnyQ54j-Cl0NHfQN-8575" value="16" style="rounded=0;whiteSpace=wrap;html=1;fontSize=32;" parent="0lz1U4sb5ddqj5HPqUz7-1" vertex="1">
          <mxGeometry x="890" y="650" width="160" height="160" as="geometry" />
        </mxCell>
        <mxCell id="761dnnyQ54j-Cl0NHfQN-8576" value="77" style="rounded=0;whiteSpace=wrap;html=1;fontSize=32;" parent="0lz1U4sb5ddqj5HPqUz7-1" vertex="1">
          <mxGeometry width="770" height="770" as="geometry" />
        </mxCell>
        <mxCell id="761dnnyQ54j-Cl0NHfQN-8577" value="12" style="rounded=0;whiteSpace=wrap;html=1;fontSize=32;" parent="0lz1U4sb5ddqj5HPqUz7-1" vertex="1">
          <mxGeometry x="770" y="650" width="120" height="120" as="geometry" />
        </mxCell>
        <mxCell id="761dnnyQ54j-Cl0NHfQN-8578" value="65" style="rounded=0;whiteSpace=wrap;html=1;fontSize=32;" parent="0lz1U4sb5ddqj5HPqUz7-1" vertex="1">
          <mxGeometry x="770" width="650" height="650" as="geometry" />
        </mxCell>
        <mxCell id="0lz1U4sb5ddqj5HPqUz7-2" value="" style="group;flipV=1;" vertex="1" connectable="0" parent="1">
          <mxGeometry x="1525" y="1490" width="1420" height="1250" as="geometry" />
        </mxCell>
        <mxCell id="761dnnyQ54j-Cl0NHfQN-12010" value="53" style="rounded=0;whiteSpace=wrap;html=1;fontSize=32;" parent="0lz1U4sb5ddqj5HPqUz7-2" vertex="1">
          <mxGeometry y="720" width="530" height="530" as="geometry" />
        </mxCell>
        <mxCell id="761dnnyQ54j-Cl0NHfQN-12011" value="34" style="rounded=0;whiteSpace=wrap;html=1;fontSize=32;" parent="0lz1U4sb5ddqj5HPqUz7-2" vertex="1">
          <mxGeometry x="530" y="910" width="340" height="340" as="geometry" />
        </mxCell>
        <mxCell id="761dnnyQ54j-Cl0NHfQN-12012" value="28" style="rounded=0;whiteSpace=wrap;html=1;fontSize=32;" parent="0lz1U4sb5ddqj5HPqUz7-2" vertex="1">
          <mxGeometry x="870" y="970" width="280" height="280" as="geometry" />
        </mxCell>
        <mxCell id="761dnnyQ54j-Cl0NHfQN-12013" value="11" style="rounded=0;whiteSpace=wrap;html=1;fontSize=32;" parent="0lz1U4sb5ddqj5HPqUz7-2" vertex="1">
          <mxGeometry x="1150" y="1140" width="110" height="110" as="geometry" />
        </mxCell>
        <mxCell id="761dnnyQ54j-Cl0NHfQN-12014" value="16" style="rounded=0;whiteSpace=wrap;html=1;fontSize=32;" parent="0lz1U4sb5ddqj5HPqUz7-2" vertex="1">
          <mxGeometry x="1260" y="1090" width="160" height="160" as="geometry" />
        </mxCell>
        <mxCell id="761dnnyQ54j-Cl0NHfQN-12015" value="7" style="rounded=0;whiteSpace=wrap;html=1;fontSize=32;" parent="0lz1U4sb5ddqj5HPqUz7-2" vertex="1">
          <mxGeometry x="1150" y="1070" width="70" height="70" as="geometry" />
        </mxCell>
        <mxCell id="761dnnyQ54j-Cl0NHfQN-12016" value="4" style="rounded=0;whiteSpace=wrap;html=1;fontSize=32;" parent="0lz1U4sb5ddqj5HPqUz7-2" vertex="1">
          <mxGeometry x="1220" y="1100" width="40" height="40" as="geometry" />
        </mxCell>
        <mxCell id="761dnnyQ54j-Cl0NHfQN-12017" value="3" style="rounded=0;whiteSpace=wrap;html=1;fontSize=32;" parent="0lz1U4sb5ddqj5HPqUz7-2" vertex="1">
          <mxGeometry x="1220" y="1070" width="30" height="30" as="geometry" />
        </mxCell>
        <mxCell id="761dnnyQ54j-Cl0NHfQN-12018" value="1" style="rounded=0;whiteSpace=wrap;html=1;fontSize=32;" parent="0lz1U4sb5ddqj5HPqUz7-2" vertex="1">
          <mxGeometry x="1250" y="1090" width="10" height="10" as="geometry" />
        </mxCell>
        <mxCell id="761dnnyQ54j-Cl0NHfQN-12019" value="17" style="rounded=0;whiteSpace=wrap;html=1;fontSize=32;" parent="0lz1U4sb5ddqj5HPqUz7-2" vertex="1">
          <mxGeometry x="1250" y="920" width="170" height="170" as="geometry" />
        </mxCell>
        <mxCell id="761dnnyQ54j-Cl0NHfQN-12020" value="10" style="rounded=0;whiteSpace=wrap;html=1;fontSize=32;" parent="0lz1U4sb5ddqj5HPqUz7-2" vertex="1">
          <mxGeometry x="1150" y="970" width="100" height="100" as="geometry" />
        </mxCell>
        <mxCell id="761dnnyQ54j-Cl0NHfQN-12021" value="6" style="rounded=0;whiteSpace=wrap;html=1;fontSize=32;" parent="0lz1U4sb5ddqj5HPqUz7-2" vertex="1">
          <mxGeometry x="870" y="910" width="60" height="60" as="geometry" />
        </mxCell>
        <mxCell id="761dnnyQ54j-Cl0NHfQN-12022" value="27" style="rounded=0;whiteSpace=wrap;html=1;fontSize=32;" parent="0lz1U4sb5ddqj5HPqUz7-2" vertex="1">
          <mxGeometry x="930" y="700" width="270" height="270" as="geometry" />
        </mxCell>
        <mxCell id="761dnnyQ54j-Cl0NHfQN-12023" value="5" style="rounded=0;whiteSpace=wrap;html=1;fontSize=32;" parent="0lz1U4sb5ddqj5HPqUz7-2" vertex="1">
          <mxGeometry x="1200" y="920" width="50" height="50" as="geometry" />
        </mxCell>
        <mxCell id="761dnnyQ54j-Cl0NHfQN-12024" value="22" style="rounded=0;whiteSpace=wrap;html=1;fontSize=32;" parent="0lz1U4sb5ddqj5HPqUz7-2" vertex="1">
          <mxGeometry x="1200" y="700" width="220" height="220" as="geometry" />
        </mxCell>
        <mxCell id="761dnnyQ54j-Cl0NHfQN-12025" value="19" style="rounded=0;whiteSpace=wrap;html=1;fontSize=32;" parent="0lz1U4sb5ddqj5HPqUz7-2" vertex="1">
          <mxGeometry x="530" y="720" width="190" height="190" as="geometry" />
        </mxCell>
        <mxCell id="761dnnyQ54j-Cl0NHfQN-12026" value="21" style="rounded=0;whiteSpace=wrap;html=1;fontSize=32;" parent="0lz1U4sb5ddqj5HPqUz7-2" vertex="1">
          <mxGeometry x="720" y="700" width="210" height="210" as="geometry" />
        </mxCell>
        <mxCell id="761dnnyQ54j-Cl0NHfQN-12027" value="72" style="rounded=0;whiteSpace=wrap;html=1;fontSize=32;" parent="0lz1U4sb5ddqj5HPqUz7-2" vertex="1">
          <mxGeometry width="720" height="720" as="geometry" />
        </mxCell>
        <mxCell id="761dnnyQ54j-Cl0NHfQN-12028" value="70" style="rounded=0;whiteSpace=wrap;html=1;fontSize=32;" parent="0lz1U4sb5ddqj5HPqUz7-2" vertex="1">
          <mxGeometry x="720" width="700" height="700" as="geometry" />
        </mxCell>
        <mxCell id="0lz1U4sb5ddqj5HPqUz7-4" value="" style="group;flipV=1;" vertex="1" connectable="0" parent="1">
          <mxGeometry x="1520" y="2830" width="1420" height="1170" as="geometry" />
        </mxCell>
        <mxCell id="761dnnyQ54j-Cl0NHfQN-45082" value="31" style="rounded=0;whiteSpace=wrap;html=1;fontSize=32;" parent="0lz1U4sb5ddqj5HPqUz7-4" vertex="1">
          <mxGeometry y="860" width="310" height="310" as="geometry" />
        </mxCell>
        <mxCell id="761dnnyQ54j-Cl0NHfQN-45083" value="27" style="rounded=0;whiteSpace=wrap;html=1;fontSize=32;" parent="0lz1U4sb5ddqj5HPqUz7-4" vertex="1">
          <mxGeometry x="310" y="900" width="270" height="270" as="geometry" />
        </mxCell>
        <mxCell id="761dnnyQ54j-Cl0NHfQN-45084" value="33" style="rounded=0;whiteSpace=wrap;html=1;fontSize=32;" parent="0lz1U4sb5ddqj5HPqUz7-4" vertex="1">
          <mxGeometry x="580" y="840" width="330" height="330" as="geometry" />
        </mxCell>
        <mxCell id="761dnnyQ54j-Cl0NHfQN-45085" value="4" style="rounded=0;whiteSpace=wrap;html=1;fontSize=32;" parent="0lz1U4sb5ddqj5HPqUz7-4" vertex="1">
          <mxGeometry x="310" y="860" width="40" height="40" as="geometry" />
        </mxCell>
        <mxCell id="761dnnyQ54j-Cl0NHfQN-45086" value="23" style="rounded=0;whiteSpace=wrap;html=1;fontSize=32;" parent="0lz1U4sb5ddqj5HPqUz7-4" vertex="1">
          <mxGeometry x="350" y="670" width="230" height="230" as="geometry" />
        </mxCell>
        <mxCell id="761dnnyQ54j-Cl0NHfQN-45087" value="35" style="rounded=0;whiteSpace=wrap;html=1;fontSize=32;" parent="0lz1U4sb5ddqj5HPqUz7-4" vertex="1">
          <mxGeometry y="510" width="350" height="350" as="geometry" />
        </mxCell>
        <mxCell id="761dnnyQ54j-Cl0NHfQN-45088" value="21" style="rounded=0;whiteSpace=wrap;html=1;fontSize=32;" parent="0lz1U4sb5ddqj5HPqUz7-4" vertex="1">
          <mxGeometry x="910" y="960" width="210" height="210" as="geometry" />
        </mxCell>
        <mxCell id="761dnnyQ54j-Cl0NHfQN-45089" value="30" style="rounded=0;whiteSpace=wrap;html=1;fontSize=32;" parent="0lz1U4sb5ddqj5HPqUz7-4" vertex="1">
          <mxGeometry x="1120" y="870" width="300" height="300" as="geometry" />
        </mxCell>
        <mxCell id="761dnnyQ54j-Cl0NHfQN-45090" value="12" style="rounded=0;whiteSpace=wrap;html=1;fontSize=32;" parent="0lz1U4sb5ddqj5HPqUz7-4" vertex="1">
          <mxGeometry x="910" y="840" width="120" height="120" as="geometry" />
        </mxCell>
        <mxCell id="761dnnyQ54j-Cl0NHfQN-45091" value="9" style="rounded=0;whiteSpace=wrap;html=1;fontSize=32;" parent="0lz1U4sb5ddqj5HPqUz7-4" vertex="1">
          <mxGeometry x="1030" y="870" width="90" height="90" as="geometry" />
        </mxCell>
        <mxCell id="761dnnyQ54j-Cl0NHfQN-45092" value="39" style="rounded=0;whiteSpace=wrap;html=1;fontSize=32;" parent="0lz1U4sb5ddqj5HPqUz7-4" vertex="1">
          <mxGeometry x="1030" y="480" width="390" height="390" as="geometry" />
        </mxCell>
        <mxCell id="761dnnyQ54j-Cl0NHfQN-45093" value="17" style="rounded=0;whiteSpace=wrap;html=1;fontSize=32;" parent="0lz1U4sb5ddqj5HPqUz7-4" vertex="1">
          <mxGeometry x="580" y="670" width="170" height="170" as="geometry" />
        </mxCell>
        <mxCell id="761dnnyQ54j-Cl0NHfQN-45094" value="28" style="rounded=0;whiteSpace=wrap;html=1;fontSize=32;" parent="0lz1U4sb5ddqj5HPqUz7-4" vertex="1">
          <mxGeometry x="750" y="560" width="280" height="280" as="geometry" />
        </mxCell>
        <mxCell id="761dnnyQ54j-Cl0NHfQN-45095" value="16" style="rounded=0;whiteSpace=wrap;html=1;fontSize=32;" parent="0lz1U4sb5ddqj5HPqUz7-4" vertex="1">
          <mxGeometry x="350" y="510" width="160" height="160" as="geometry" />
        </mxCell>
        <mxCell id="761dnnyQ54j-Cl0NHfQN-45096" value="24" style="rounded=0;whiteSpace=wrap;html=1;fontSize=32;" parent="0lz1U4sb5ddqj5HPqUz7-4" vertex="1">
          <mxGeometry x="510" y="430" width="240" height="240" as="geometry" />
        </mxCell>
        <mxCell id="761dnnyQ54j-Cl0NHfQN-45097" value="13" style="rounded=0;whiteSpace=wrap;html=1;fontSize=32;" parent="0lz1U4sb5ddqj5HPqUz7-4" vertex="1">
          <mxGeometry x="750" y="430" width="130" height="130" as="geometry" />
        </mxCell>
        <mxCell id="761dnnyQ54j-Cl0NHfQN-45098" value="7" style="rounded=0;whiteSpace=wrap;html=1;fontSize=32;" parent="0lz1U4sb5ddqj5HPqUz7-4" vertex="1">
          <mxGeometry x="880" y="490" width="70" height="70" as="geometry" />
        </mxCell>
        <mxCell id="761dnnyQ54j-Cl0NHfQN-45099" value="8" style="rounded=0;whiteSpace=wrap;html=1;fontSize=32;" parent="0lz1U4sb5ddqj5HPqUz7-4" vertex="1">
          <mxGeometry x="950" y="480" width="80" height="80" as="geometry" />
        </mxCell>
        <mxCell id="761dnnyQ54j-Cl0NHfQN-45100" value="6" style="rounded=0;whiteSpace=wrap;html=1;fontSize=32;" parent="0lz1U4sb5ddqj5HPqUz7-4" vertex="1">
          <mxGeometry x="880" y="430" width="60" height="60" as="geometry" />
        </mxCell>
        <mxCell id="761dnnyQ54j-Cl0NHfQN-45101" value="1" style="rounded=0;whiteSpace=wrap;html=1;fontSize=32;" parent="0lz1U4sb5ddqj5HPqUz7-4" vertex="1">
          <mxGeometry x="940" y="480" width="10" height="10" as="geometry" />
        </mxCell>
        <mxCell id="761dnnyQ54j-Cl0NHfQN-45102" value="48" style="rounded=0;whiteSpace=wrap;html=1;fontSize=32;" parent="0lz1U4sb5ddqj5HPqUz7-4" vertex="1">
          <mxGeometry x="940" width="480" height="480" as="geometry" />
        </mxCell>
        <mxCell id="761dnnyQ54j-Cl0NHfQN-45103" value="51" style="rounded=0;whiteSpace=wrap;html=1;fontSize=32;" parent="0lz1U4sb5ddqj5HPqUz7-4" vertex="1">
          <mxGeometry width="510" height="510" as="geometry" />
        </mxCell>
        <mxCell id="761dnnyQ54j-Cl0NHfQN-45104" value="43" style="rounded=0;whiteSpace=wrap;html=1;fontSize=32;" parent="0lz1U4sb5ddqj5HPqUz7-4" vertex="1">
          <mxGeometry x="510" width="430" height="430" as="geometry" />
        </mxCell>
        <mxCell id="0lz1U4sb5ddqj5HPqUz7-5" value="" style="group;flipV=1;" vertex="1" connectable="0" parent="1">
          <mxGeometry x="1530" y="4100" width="1420" height="1220" as="geometry" />
        </mxCell>
        <mxCell id="761dnnyQ54j-Cl0NHfQN-45178" value="43" style="rounded=0;whiteSpace=wrap;html=1;fontSize=32;" parent="0lz1U4sb5ddqj5HPqUz7-5" vertex="1">
          <mxGeometry y="790" width="430" height="430" as="geometry" />
        </mxCell>
        <mxCell id="761dnnyQ54j-Cl0NHfQN-45179" value="31" style="rounded=0;whiteSpace=wrap;html=1;fontSize=32;" parent="0lz1U4sb5ddqj5HPqUz7-5" vertex="1">
          <mxGeometry x="430" y="910" width="310" height="310" as="geometry" />
        </mxCell>
        <mxCell id="761dnnyQ54j-Cl0NHfQN-45180" value="26" style="rounded=0;whiteSpace=wrap;html=1;fontSize=32;" parent="0lz1U4sb5ddqj5HPqUz7-5" vertex="1">
          <mxGeometry x="740" y="960" width="260" height="260" as="geometry" />
        </mxCell>
        <mxCell id="761dnnyQ54j-Cl0NHfQN-45181" value="42" style="rounded=0;whiteSpace=wrap;html=1;fontSize=32;" parent="0lz1U4sb5ddqj5HPqUz7-5" vertex="1">
          <mxGeometry x="1000" y="800" width="420" height="420" as="geometry" />
        </mxCell>
        <mxCell id="761dnnyQ54j-Cl0NHfQN-45182" value="10" style="rounded=0;whiteSpace=wrap;html=1;fontSize=32;" parent="0lz1U4sb5ddqj5HPqUz7-5" vertex="1">
          <mxGeometry x="740" y="860" width="100" height="100" as="geometry" />
        </mxCell>
        <mxCell id="761dnnyQ54j-Cl0NHfQN-45183" value="16" style="rounded=0;whiteSpace=wrap;html=1;fontSize=32;" parent="0lz1U4sb5ddqj5HPqUz7-5" vertex="1">
          <mxGeometry x="840" y="800" width="160" height="160" as="geometry" />
        </mxCell>
        <mxCell id="761dnnyQ54j-Cl0NHfQN-45184" value="12" style="rounded=0;whiteSpace=wrap;html=1;fontSize=32;" parent="0lz1U4sb5ddqj5HPqUz7-5" vertex="1">
          <mxGeometry x="430" y="790" width="120" height="120" as="geometry" />
        </mxCell>
        <mxCell id="761dnnyQ54j-Cl0NHfQN-45185" value="14" style="rounded=0;whiteSpace=wrap;html=1;fontSize=32;" parent="0lz1U4sb5ddqj5HPqUz7-5" vertex="1">
          <mxGeometry x="550" y="770" width="140" height="140" as="geometry" />
        </mxCell>
        <mxCell id="761dnnyQ54j-Cl0NHfQN-45186" value="5" style="rounded=0;whiteSpace=wrap;html=1;fontSize=32;" parent="0lz1U4sb5ddqj5HPqUz7-5" vertex="1">
          <mxGeometry x="690" y="860" width="50" height="50" as="geometry" />
        </mxCell>
        <mxCell id="761dnnyQ54j-Cl0NHfQN-45187" value="9" style="rounded=0;whiteSpace=wrap;html=1;fontSize=32;" parent="0lz1U4sb5ddqj5HPqUz7-5" vertex="1">
          <mxGeometry x="690" y="770" width="90" height="90" as="geometry" />
        </mxCell>
        <mxCell id="761dnnyQ54j-Cl0NHfQN-45188" value="6" style="rounded=0;whiteSpace=wrap;html=1;fontSize=32;" parent="0lz1U4sb5ddqj5HPqUz7-5" vertex="1">
          <mxGeometry x="780" y="800" width="60" height="60" as="geometry" />
        </mxCell>
        <mxCell id="761dnnyQ54j-Cl0NHfQN-45189" value="33" style="rounded=0;whiteSpace=wrap;html=1;fontSize=32;" parent="0lz1U4sb5ddqj5HPqUz7-5" vertex="1">
          <mxGeometry y="460" width="330" height="330" as="geometry" />
        </mxCell>
        <mxCell id="761dnnyQ54j-Cl0NHfQN-45190" value="20" style="rounded=0;whiteSpace=wrap;html=1;fontSize=32;" parent="0lz1U4sb5ddqj5HPqUz7-5" vertex="1">
          <mxGeometry x="330" y="590" width="200" height="200" as="geometry" />
        </mxCell>
        <mxCell id="761dnnyQ54j-Cl0NHfQN-45191" value="2" style="rounded=0;whiteSpace=wrap;html=1;fontSize=32;" parent="0lz1U4sb5ddqj5HPqUz7-5" vertex="1">
          <mxGeometry x="530" y="770" width="20" height="20" as="geometry" />
        </mxCell>
        <mxCell id="761dnnyQ54j-Cl0NHfQN-45192" value="28" style="rounded=0;whiteSpace=wrap;html=1;fontSize=32;" parent="0lz1U4sb5ddqj5HPqUz7-5" vertex="1">
          <mxGeometry x="780" y="520" width="280" height="280" as="geometry" />
        </mxCell>
        <mxCell id="761dnnyQ54j-Cl0NHfQN-45193" value="25" style="rounded=0;whiteSpace=wrap;html=1;fontSize=32;" parent="0lz1U4sb5ddqj5HPqUz7-5" vertex="1">
          <mxGeometry x="530" y="520" width="250" height="250" as="geometry" />
        </mxCell>
        <mxCell id="761dnnyQ54j-Cl0NHfQN-45194" value="13" style="rounded=0;whiteSpace=wrap;html=1;fontSize=32;" parent="0lz1U4sb5ddqj5HPqUz7-5" vertex="1">
          <mxGeometry x="330" y="460" width="130" height="130" as="geometry" />
        </mxCell>
        <mxCell id="761dnnyQ54j-Cl0NHfQN-45195" value="7" style="rounded=0;whiteSpace=wrap;html=1;fontSize=32;" parent="0lz1U4sb5ddqj5HPqUz7-5" vertex="1">
          <mxGeometry x="460" y="520" width="70" height="70" as="geometry" />
        </mxCell>
        <mxCell id="761dnnyQ54j-Cl0NHfQN-45196" value="36" style="rounded=0;whiteSpace=wrap;html=1;fontSize=32;" parent="0lz1U4sb5ddqj5HPqUz7-5" vertex="1">
          <mxGeometry x="1060" y="440" width="360" height="360" as="geometry" />
        </mxCell>
        <mxCell id="761dnnyQ54j-Cl0NHfQN-45197" value="52" style="rounded=0;whiteSpace=wrap;html=1;fontSize=32;" parent="0lz1U4sb5ddqj5HPqUz7-5" vertex="1">
          <mxGeometry x="460" width="520" height="520" as="geometry" />
        </mxCell>
        <mxCell id="761dnnyQ54j-Cl0NHfQN-45198" value="8" style="rounded=0;whiteSpace=wrap;html=1;fontSize=32;" parent="0lz1U4sb5ddqj5HPqUz7-5" vertex="1">
          <mxGeometry x="980" y="440" width="80" height="80" as="geometry" />
        </mxCell>
        <mxCell id="761dnnyQ54j-Cl0NHfQN-45199" value="44" style="rounded=0;whiteSpace=wrap;html=1;fontSize=32;" parent="0lz1U4sb5ddqj5HPqUz7-5" vertex="1">
          <mxGeometry x="980" width="440" height="440" as="geometry" />
        </mxCell>
        <mxCell id="761dnnyQ54j-Cl0NHfQN-45200" value="46" style="rounded=0;whiteSpace=wrap;html=1;fontSize=32;" parent="0lz1U4sb5ddqj5HPqUz7-5" vertex="1">
          <mxGeometry width="460" height="460" as="geometry" />
        </mxCell>
      </root>
    </mxGraphModel>
  </diagram>
</mxfile>
